<?xml version="1.0" encoding="UTF-8"?>
<!DOCTYPE svg PUBLIC "-//W3C//DTD SVG 1.1//EN" "http://www.w3.org/Graphics/SVG/1.1/DTD/svg11.dtd">
<svg version="1.1" xmlns="http://www.w3.org/2000/svg" xmlns:xlink="http://www.w3.org/1999/xlink" x="0" y="0" width="100" height="59" viewBox="0, 0, 100, 59">
  <g id="Layer_1">
    <path d="M10.394,41.718 C10.338,41.718 10.255,41.69 10.145,41.69 C10.09,41.69 10.007,41.663 9.868,41.635 C8.708,41.386 7.574,40.971 6.496,40.417 L6.524,40.196 C6.8,38.507 7.077,36.791 7.768,35.213 C7.934,35.047 8.044,34.826 8.099,34.604 L10.753,34.687 L11.278,34.687 C11.499,34.687 11.693,34.604 11.886,34.494 C12.08,34.604 12.301,34.687 12.522,34.687 C12.826,34.687 13.13,34.549 13.351,34.328 C13.821,34.577 14.291,34.77 14.872,34.77 L14.982,34.77 C15.618,34.715 16.254,34.604 16.89,34.438 C17.498,34.3 18.161,34.106 18.852,33.912 C18.327,34.494 17.774,35.02 17.194,35.518 C16.364,36.127 15.452,36.653 14.512,37.096 C14.015,37.345 13.545,37.677 13.13,38.092 C12.854,38.396 12.633,38.729 12.467,39.061 C12.412,39.144 12.384,39.227 12.329,39.282 C12.246,39.421 12.135,39.559 12.052,39.725 C11.831,40.002 11.665,40.306 11.555,40.611 C11.416,40.998 11.306,41.414 11.195,41.773 L11.168,41.856 C10.919,41.801 10.642,41.746 10.394,41.718 M15.452,37.179 C16.392,38.452 17.774,39.227 19.184,39.891 C17.166,41.22 14.816,41.912 12.412,41.912 C12.163,41.912 11.942,41.912 11.693,41.884 C11.803,41.524 11.914,41.137 12.052,40.777 C12.163,40.5 12.301,40.251 12.494,40.002 C12.605,39.864 12.716,39.697 12.799,39.531 C12.854,39.448 12.881,39.365 12.937,39.282 C13.103,38.978 13.296,38.673 13.517,38.424 C13.877,38.064 14.291,37.76 14.761,37.538 L15.452,37.179 z M6.994,23.117 C6.938,21.567 6.773,20.045 6.469,18.523 C10.836,16.142 16.198,16.613 20.124,19.713 C20.041,19.796 19.958,19.879 19.902,19.962 C19.709,20.211 19.571,20.515 19.46,20.82 C19.433,20.931 19.377,21.014 19.35,21.124 L19.184,21.512 C18.907,22.176 18.576,22.841 18.189,23.449 C17.857,23.892 17.498,24.308 17.111,24.667 C16.862,24.917 16.585,25.193 16.337,25.47 C16.281,25.553 16.198,25.636 16.143,25.719 L15.673,25.276 C15.646,25.221 15.59,25.138 15.563,25.083 C15.48,24.944 15.397,24.806 15.397,24.64 C15.425,24.474 15.646,24.308 15.811,24.169 C15.867,24.114 15.922,24.086 15.95,24.058 C16.005,24.003 16.033,23.948 16.033,23.892 C16.033,23.837 16.005,23.754 15.977,23.699 C15.922,23.643 15.867,23.616 15.811,23.616 C15.756,23.616 15.673,23.643 15.618,23.671 C15.59,23.699 15.535,23.754 15.48,23.782 C15.231,23.975 14.927,24.225 14.872,24.584 C14.844,24.861 14.927,25.138 15.093,25.387 L15.12,25.442 C15.065,25.525 15.01,25.581 14.955,25.664 C14.706,26.051 14.512,26.301 14.264,26.273 C13.628,26.19 13.49,26.522 13.379,26.882 C13.241,27.214 13.158,27.712 13.821,27.989 L14.015,28.072 C14.264,28.183 14.485,28.266 14.761,28.349 C14.899,28.376 15.038,28.404 15.176,28.432 L15.756,28.46 C16.143,28.487 16.558,28.487 16.945,28.515 C17.498,28.543 18.023,28.626 18.548,28.792 C18.88,28.902 19.073,29.207 19.211,29.511 C19.46,29.982 19.709,30.48 19.985,31.172 C20.179,31.643 20.428,32.086 20.704,32.528 C20.732,32.584 20.759,32.639 20.815,32.694 C20.676,32.778 20.538,32.833 20.4,32.888 C19.211,33.359 17.995,33.746 16.779,34.023 C16.198,34.189 15.59,34.3 14.982,34.328 C14.485,34.355 14.07,34.162 13.6,33.94 C13.628,33.829 13.628,33.746 13.628,33.636 C13.655,33.11 13.296,32.667 12.799,32.556 C12.826,32.335 12.826,32.113 12.854,31.919 C12.909,31.532 12.937,31.117 12.937,30.729 C12.937,30.508 12.909,30.286 12.909,30.093 C12.909,29.843 12.881,29.594 12.881,29.345 L12.881,29.235 C12.881,28.487 12.881,27.38 12.052,27.02 C11.499,26.799 10.864,26.688 10.255,26.771 C10.09,26.771 9.951,26.799 9.786,26.826 C9.454,26.882 9.095,26.937 8.901,26.854 C8.763,26.799 8.708,26.577 8.68,26.356 C8.652,26.107 8.652,25.858 8.652,25.609 L8.652,25.442 C8.652,25.083 8.625,24.75 8.597,24.418 L8.569,24.003 C8.569,23.865 8.542,23.726 8.542,23.588 C8.486,23.173 8.486,22.785 8.542,22.37 C8.652,21.789 8.735,21.235 8.818,20.765 C8.846,20.626 8.735,20.488 8.597,20.46 C8.459,20.432 8.321,20.543 8.293,20.682 C8.21,21.152 8.127,21.706 8.016,22.287 C7.961,22.73 7.934,23.2 8.016,23.643 C8.016,23.782 8.044,23.92 8.044,24.058 C8.044,24.197 8.072,24.335 8.072,24.474 C8.099,24.806 8.127,25.138 8.127,25.47 L8.127,25.636 C8.127,25.913 8.127,26.162 8.155,26.439 C8.182,26.66 8.293,27.131 8.652,27.325 C9.012,27.518 9.454,27.435 9.868,27.352 C10.007,27.325 10.145,27.297 10.255,27.297 C10.781,27.242 11.306,27.325 11.803,27.518 C12.356,27.768 12.356,28.653 12.356,29.262 L12.356,29.401 C12.356,29.65 12.384,29.927 12.384,30.176 C12.412,30.397 12.412,30.591 12.412,30.812 C12.412,31.2 12.384,31.56 12.329,31.947 C12.301,32.169 12.273,32.39 12.273,32.611 C11.748,32.694 11.333,33.165 11.361,33.691 C11.361,33.885 11.416,34.051 11.499,34.217 C11.389,34.272 11.251,34.3 11.112,34.3 L8.155,34.051 C8.127,33.829 8.072,33.636 7.961,33.442 C7.215,31.836 7.021,30.01 6.828,28.266 L6.8,27.961 C6.938,26.384 6.994,24.75 6.994,23.117 M9.841,23.366 C9.813,23.588 9.841,23.782 9.868,24.003 C9.896,24.141 9.979,24.612 10.09,24.667 C10.2,24.723 10.477,24.667 10.615,24.667 L11.914,24.667 L11.914,23.671 L11.61,23.671 L11.61,22.425 L10.311,22.425 C10.173,22.425 10.117,22.398 10.034,22.481 C9.868,22.674 9.841,23.145 9.841,23.366 M5.695,33.082 C5.667,33.802 5.639,34.577 5.612,35.324 C4.893,35.241 4.202,34.909 4.202,34.189 C4.23,33.497 4.948,33.137 5.695,33.082 M6.441,33.11 C6.69,33.137 6.938,33.248 7.187,33.359 C7.491,33.525 7.685,33.857 7.685,34.189 C7.685,34.854 7.077,35.186 6.386,35.296 C6.386,34.577 6.386,33.829 6.441,33.11 M22.003,32.445 L24.602,31.781 C24.353,33.11 23.883,34.383 23.22,35.545 C22.888,35.075 22.556,34.632 22.169,34.217 C22.003,34.051 21.81,33.94 21.616,33.829 C21.506,33.774 21.395,33.691 21.285,33.636 C21.119,33.497 21.008,33.303 20.953,33.082 C21.312,32.916 21.644,32.694 21.948,32.418 C21.976,32.445 22.003,32.445 22.003,32.445 M22.611,30.84 C22.335,31.255 22.031,31.643 21.672,32.003 C21.533,32.113 21.395,32.224 21.229,32.335 C21.202,32.279 21.146,32.224 21.119,32.169 C20.87,31.753 20.621,31.311 20.428,30.868 C20.124,30.176 19.875,29.65 19.626,29.152 C19.543,28.958 19.405,28.792 19.267,28.626 L18.852,23.283 C19.129,22.758 19.377,22.232 19.598,21.706 L19.764,21.318 C19.82,21.207 19.847,21.097 19.902,20.986 C19.985,20.737 20.096,20.488 20.262,20.266 C20.345,20.183 20.4,20.1 20.483,20.017 C22.777,21.982 24.27,24.723 24.685,27.74 L24.519,27.989 C23.966,28.819 23.385,29.705 22.777,30.535 C22.75,30.646 22.694,30.757 22.611,30.84 M16.972,27.906 C16.558,27.878 16.171,27.851 15.756,27.823 L15.342,27.795 L15.452,27.629 C15.839,26.965 16.281,26.356 16.751,25.775 C16.972,25.498 17.249,25.249 17.498,25 C17.857,24.667 18.161,24.335 18.465,23.975 L18.797,28.21 L18.742,28.183 C18.133,28.044 17.553,27.934 16.972,27.906 M23.054,31.144 L23.247,30.868 C23.772,30.12 24.298,29.345 24.795,28.57 C24.823,28.847 24.823,29.152 24.823,29.456 C24.823,30.037 24.767,30.646 24.685,31.227 L22.584,31.753 C22.75,31.56 22.915,31.338 23.054,31.144 M15.811,26.134 C15.507,26.55 15.259,26.965 14.982,27.38 L14.761,27.74 C14.568,27.684 14.374,27.601 14.181,27.518 L14.015,27.435 C13.794,27.352 13.738,27.325 13.877,26.992 C13.987,26.688 13.987,26.688 14.208,26.716 C14.789,26.799 15.148,26.273 15.397,25.885 L15.452,25.802 L15.811,26.134 z M6.441,32.584 C6.469,31.781 6.551,30.978 6.607,30.176 C6.717,31.061 6.938,31.947 7.215,32.805 C6.994,32.722 6.717,32.639 6.441,32.584 M4.119,35.241 C4.727,36.763 5.252,38.313 5.667,39.919 C3.29,38.396 1.521,36.099 0.608,33.386 L0.608,33.359 L0.774,33.248 C1.023,33.082 1.272,32.888 1.465,32.667 C1.714,32.861 1.963,33.027 2.184,33.248 C2.35,33.386 2.543,33.525 2.709,33.663 C2.903,33.802 3.096,33.912 3.29,34.023 C3.428,34.106 3.594,34.189 3.704,34.3 C3.76,34.66 3.898,34.964 4.119,35.241 z M0.498,26.992 C0.443,26.937 0.36,26.854 0.304,26.826 C0.719,24.861 1.631,23.034 2.903,21.512 L2.958,22.398 C3.041,23.865 3.124,25.415 3.262,26.909 L3.29,27.02 C3.317,27.38 3.317,27.518 3.179,27.574 C3.013,27.629 2.82,27.684 2.654,27.657 C2.571,27.657 2.516,27.684 2.433,27.684 C2.322,27.684 2.212,27.712 2.073,27.74 C1.797,27.795 1.493,27.851 1.355,27.74 C1.051,27.491 0.774,27.242 0.498,26.992 M0.166,27.38 C0.443,27.629 0.719,27.906 1.023,28.127 L1.078,28.155 L1.161,31.311 C1.161,31.421 1.161,31.504 1.189,31.615 C1.217,31.809 1.217,31.975 1.189,32.169 C1.134,32.418 0.774,32.639 0.498,32.833 L0.443,32.861 C0.139,31.753 0,30.619 0,29.456 C0,28.764 0.056,28.072 0.166,27.38 M22.915,35.988 L22.943,36.044 C22.086,37.428 20.981,38.618 19.681,39.559 C18.244,38.895 16.834,38.175 15.922,36.929 C16.475,36.625 17.028,36.293 17.525,35.905 C18.161,35.379 18.742,34.826 19.294,34.217 C19.516,33.995 19.737,33.746 19.958,33.525 C20.151,33.47 20.345,33.386 20.511,33.303 C20.594,33.608 20.759,33.857 21.008,34.051 C21.146,34.134 21.257,34.217 21.395,34.3 C21.561,34.355 21.699,34.466 21.837,34.577 C22.224,35.02 22.584,35.49 22.915,35.988 M11.914,33.553 C11.914,33.386 11.969,33.22 12.107,33.11 C12.218,32.999 12.384,32.944 12.55,32.944 C12.716,32.944 12.854,32.999 12.992,33.082 C13.103,33.193 13.186,33.359 13.186,33.525 C13.186,33.857 12.909,34.134 12.577,34.134 C12.19,34.189 11.914,33.912 11.914,33.553 M6.358,35.85 C6.607,35.822 6.883,35.767 7.132,35.656 C6.828,36.514 6.579,37.428 6.413,38.313 C6.413,37.981 6.386,37.649 6.386,37.317 C6.358,36.846 6.358,36.348 6.358,35.85 M5.584,31.006 C5.639,30.84 5.667,30.674 5.722,30.508 L5.916,29.843 C5.833,30.757 5.777,31.67 5.722,32.584 C5.473,32.611 5.225,32.639 4.976,32.722 C5.086,32.528 5.169,32.335 5.252,32.113 C5.39,31.726 5.501,31.366 5.584,31.006 M5.639,37.345 C5.639,37.649 5.667,37.981 5.667,38.286 C5.418,37.4 5.114,36.514 4.782,35.656 C5.059,35.767 5.335,35.822 5.612,35.85 C5.639,36.348 5.639,36.846 5.639,37.345 M3.456,22.342 C3.428,21.872 3.4,21.401 3.373,20.958 C4.091,20.183 4.893,19.519 5.777,18.938 C6.026,20.322 6.192,21.733 6.247,23.145 C6.275,24.612 6.192,26.107 6.082,27.546 L5.28,30.342 C5.225,30.508 5.197,30.702 5.142,30.868 C5.059,31.227 4.948,31.587 4.81,31.947 C4.699,32.196 4.589,32.445 4.451,32.694 C4.395,32.833 4.312,32.944 4.257,33.082 C4.036,33.248 3.87,33.497 3.787,33.746 L3.538,33.608 C3.345,33.497 3.179,33.386 3.013,33.276 C2.847,33.137 2.682,32.999 2.488,32.861 C2.212,32.639 1.935,32.418 1.659,32.224 C1.686,32.003 1.686,31.809 1.659,31.587 C1.659,31.504 1.631,31.394 1.631,31.311 L1.548,28.321 C1.742,28.321 1.908,28.293 2.073,28.238 C2.184,28.21 2.295,28.183 2.378,28.183 L2.571,28.183 C2.82,28.183 3.069,28.127 3.317,28.044 C3.815,27.795 3.76,27.297 3.704,26.965 L3.704,26.854 C3.594,25.332 3.511,23.809 3.456,22.342" fill="#453C90"/>
    <path d="M32.12,40.777 C32.424,40.777 32.673,41.026 32.673,41.331 C32.673,41.635 32.424,41.884 32.12,41.884 C29.19,41.884 26.371,40.611 24.215,38.313 C24.049,38.147 23.994,37.898 24.076,37.677 C24.159,37.483 24.38,37.345 24.574,37.345 C24.74,37.345 24.906,37.428 25.016,37.538 C26.979,39.642 29.494,40.777 32.12,40.777 M34.387,18.107 C34.11,18.08 33.889,17.831 33.917,17.526 C33.945,17.249 34.166,17 34.47,17 L34.525,17 C37.013,17.277 39.307,18.467 40.938,20.349 C41.104,20.543 41.104,20.848 40.938,21.069 C40.827,21.18 40.689,21.263 40.523,21.263 C40.358,21.263 40.219,21.207 40.109,21.069 C38.616,19.408 36.598,18.356 34.387,18.107 M34.442,31.061 C34.249,31.006 34.083,30.978 33.889,30.923 L33.889,28.432 C34.359,28.543 34.636,28.764 34.746,29.096 C34.829,29.401 34.884,29.705 34.94,30.01 C34.967,30.397 35.05,30.757 35.161,31.117 C35.161,31.144 35.188,31.2 35.216,31.227 C34.94,31.2 34.691,31.117 34.442,31.061 M35.41,28.875 C35.161,28.127 34.497,27.878 33.889,27.74 L33.889,25.193 C37.013,25.193 39.86,26.909 41.325,29.65 L40.855,30.037 C40.8,30.065 40.745,30.12 40.689,30.176 C40.606,30.231 40.551,30.314 40.468,30.369 L40.44,30.369 C40.33,30.342 39.169,29.622 39.003,29.511 C38.92,29.456 38.837,29.456 38.754,29.484 C38.671,29.539 38.616,29.594 38.616,29.705 C38.616,29.788 38.644,29.899 38.727,29.927 L38.81,29.954 L38.367,30.12 L38.257,30.148 C38.008,30.203 37.814,30.369 37.704,30.591 C37.676,30.646 37.649,30.729 37.621,30.812 C37.566,30.951 37.51,31.089 37.455,31.227 L36.018,31.227 C35.962,31.089 35.88,30.951 35.852,30.812 C35.741,30.508 35.686,30.176 35.658,29.843 C35.575,29.567 35.52,29.207 35.41,28.875 M36.045,41.552 C36.045,41.552 36.045,41.58 36.045,41.552 C35.631,41.69 35.216,41.746 34.801,41.801 C34.497,41.829 34.359,41.912 34.11,41.746 C33.972,41.663 33.889,41.497 33.889,41.331 L33.889,35.85 L36.267,41.109 C36.184,41.247 36.128,41.414 36.045,41.552 M38.92,37.04 C39.362,37.705 40.081,38.147 40.689,38.452 C40.192,39.144 39.556,39.753 38.865,40.251 L38.367,39.531 C38.312,39.476 38.257,39.421 38.174,39.421 C38.091,39.421 38.036,39.421 37.98,39.476 L36.681,40.611 L36.654,40.639 L33.917,34.577 L33.917,31.477 C34.055,31.504 34.193,31.532 34.332,31.587 C34.719,31.698 35.106,31.781 35.493,31.809 C35.769,32.335 36.184,32.833 36.654,33.193 C36.958,33.414 37.621,33.774 38.146,33.663 C38.367,33.608 38.588,33.47 38.699,33.248 C38.81,32.999 38.893,32.722 38.893,32.445 C38.948,31.615 39.197,31.532 39.362,31.643 C39.694,31.864 39.501,32.39 39.252,32.971 L39.197,33.082 C38.893,33.691 38.671,34.355 38.533,35.047 C38.423,35.712 38.533,36.431 38.92,37.04 M41.767,31.643 C41.878,31.698 41.988,31.753 42.127,31.809 C42.569,33.885 42.182,36.071 41.076,37.898 C40.551,37.621 39.888,37.234 39.528,36.68 C39.252,36.237 39.169,35.684 39.279,35.158 C39.418,34.549 39.611,33.94 39.888,33.386 L39.943,33.276 C40.164,32.805 40.606,31.67 39.722,31.144 C38.201,30.259 38.588,32.694 38.146,32.944 C38.119,32.971 38.119,32.999 38.063,32.999 C37.842,33.054 37.372,32.861 37.123,32.667 C36.819,32.445 36.571,32.169 36.349,31.864 L36.819,31.864 C37.123,31.892 37.427,31.864 37.704,31.809 C37.897,31.698 38.008,31.449 38.119,31.089 C38.146,31.006 38.174,30.951 38.201,30.895 C38.257,30.785 38.257,30.785 38.423,30.729 L38.561,30.674 L39.224,30.425 L39.307,30.397 C39.335,30.397 39.39,30.369 39.362,30.369 C39.418,30.369 40.247,30.868 40.247,30.868 L40.855,31.2 C40.883,31.227 40.938,31.227 40.993,31.227 C41.076,31.227 41.159,31.172 41.214,31.089 C41.242,31.034 41.27,30.951 41.242,30.895 C41.214,30.84 41.187,30.785 41.131,30.729 L41.021,30.674 C41.049,30.646 41.049,30.646 41.104,30.591 C41.159,30.563 41.187,30.508 41.242,30.48 L41.629,30.176 C41.767,30.508 41.905,30.868 42.016,31.2 C41.878,31.144 41.74,31.2 41.684,31.338 C41.574,31.449 41.629,31.587 41.767,31.643 M38.423,40.556 C37.897,40.888 37.317,41.164 36.736,41.386 C36.819,41.247 36.902,41.137 37.013,41.026 L38.091,40.085 L38.423,40.556 z M28.554,29.373 L26.592,27.657 C26.343,25.775 25.735,23.975 24.795,22.315 L26.315,23.616 C26.426,23.699 26.481,23.837 26.509,23.975 C26.592,24.28 26.647,24.612 26.702,24.944 C26.73,25.221 26.785,25.525 26.841,25.802 C26.979,26.522 27.311,27.186 27.808,27.712 C28.444,28.376 29.328,28.736 30.241,28.736 C30.406,28.736 30.572,28.736 30.71,28.709 C31.319,28.626 31.927,28.515 32.507,28.404 L32.507,30.619 L29.356,29.733 C29.301,29.705 29.218,29.705 29.163,29.677 C29.052,29.65 28.941,29.622 28.831,29.594 C28.776,29.567 28.72,29.511 28.665,29.456 L28.554,29.373 z M29.245,30.231 L32.563,31.144 L32.563,33.525 C30.324,33.525 28.167,32.584 26.619,30.978 C26.675,30.452 26.702,29.927 26.702,29.401 C26.702,29.068 26.675,28.736 26.675,28.404 L28.223,29.76 C28.25,29.788 28.278,29.816 28.306,29.843 C28.389,29.927 28.499,30.01 28.61,30.065 C28.748,30.12 28.914,30.176 29.08,30.203 C29.107,30.203 29.19,30.231 29.245,30.231 M32.037,17.028 C32.59,17 32.535,17.609 32.535,17.609 L32.535,27.684 C31.927,27.823 31.263,27.934 30.655,28.017 C29.798,28.155 28.941,27.851 28.333,27.242 C27.919,26.799 27.642,26.245 27.532,25.636 C27.476,25.387 27.449,25.138 27.393,24.889 L27.421,24.917 C27.67,25.11 27.974,25.221 28.278,25.276 C28.499,25.276 28.693,25.221 28.858,25.11 C28.997,25.027 29.08,25 29.135,25.027 C29.384,25.11 29.632,25.249 29.826,25.415 C29.937,25.498 29.964,25.498 29.771,25.858 L29.715,25.941 C29.632,26.107 29.688,26.328 29.854,26.411 C29.909,26.439 29.964,26.439 30.019,26.439 C30.158,26.439 30.268,26.356 30.324,26.245 L30.379,26.162 C30.545,25.858 30.849,25.304 30.241,24.833 C29.964,24.612 29.66,24.446 29.328,24.335 C29.052,24.28 28.776,24.308 28.554,24.474 C28.471,24.529 28.389,24.557 28.278,24.557 C27.836,24.501 27.283,24.058 27.228,24.058 C27.2,23.948 27.172,23.892 27.145,23.782 C27.089,23.505 26.924,23.283 26.73,23.09 L25.182,21.761 C25.127,21.733 25.099,21.706 25.044,21.678 C25.569,20.571 26.343,19.602 27.311,18.827 L27.338,18.855 C27.393,18.938 27.476,18.993 27.587,18.993 C27.615,18.993 27.67,18.993 27.698,18.965 C27.836,18.91 27.891,18.744 27.836,18.633 L27.78,18.495 C29.024,17.637 30.489,17.111 32.037,17.028 M37.289,28.46 C37.234,28.515 37.234,28.57 37.234,28.653 C37.234,28.709 37.262,28.792 37.317,28.819 C37.483,28.985 37.676,29.124 37.842,29.29 C37.897,29.318 37.953,29.345 38.008,29.345 C38.119,29.345 38.201,29.29 38.257,29.179 C38.284,29.068 38.257,28.958 38.174,28.902 C38.008,28.764 37.814,28.598 37.649,28.46 C37.566,28.349 37.4,28.376 37.289,28.46 M36.488,27.269 C36.405,27.159 36.239,27.131 36.128,27.214 C36.018,27.297 35.99,27.463 36.045,27.574 C36.101,27.657 36.156,27.712 36.211,27.768 L36.543,28.1 C36.598,28.155 36.654,28.183 36.736,28.183 C36.792,28.183 36.875,28.155 36.902,28.1 C37.013,27.989 37.013,27.823 36.902,27.74 L36.764,27.601 C36.681,27.546 36.626,27.463 36.571,27.408 C36.571,27.38 36.515,27.325 36.488,27.269 M35.299,25.692 C35.188,25.775 35.161,25.941 35.271,26.051 C35.41,26.217 35.52,26.411 35.603,26.605 C35.658,26.688 35.741,26.743 35.824,26.743 C35.852,26.743 35.907,26.743 35.935,26.716 C35.99,26.688 36.045,26.633 36.073,26.577 C36.101,26.522 36.101,26.439 36.073,26.384 C35.962,26.162 35.852,25.941 35.686,25.747 C35.631,25.692 35.575,25.664 35.52,25.664 C35.41,25.636 35.354,25.664 35.299,25.692 M28.306,20.626 L28.389,20.626 C28.444,20.598 28.499,20.543 28.527,20.488 C28.554,20.432 28.554,20.349 28.527,20.294 C28.471,20.183 28.444,20.1 28.389,19.99 L28.25,19.63 C28.195,19.491 28.029,19.436 27.919,19.491 C27.78,19.547 27.725,19.713 27.78,19.823 L27.946,20.156 C28.002,20.239 28.029,20.349 28.085,20.46 C28.112,20.571 28.195,20.626 28.306,20.626 M29.273,22.149 C29.328,22.121 29.356,22.038 29.384,21.982 C29.384,21.927 29.384,21.844 29.328,21.789 C29.218,21.65 29.135,21.512 29.052,21.346 C29.024,21.318 28.997,21.263 28.969,21.207 C28.914,21.124 28.831,21.069 28.748,21.069 C28.665,21.069 28.554,21.124 28.527,21.18 C28.471,21.263 28.471,21.346 28.527,21.429 C28.554,21.484 28.582,21.512 28.61,21.567 C28.72,21.733 28.803,21.899 28.914,22.038 C28.969,22.121 29.052,22.149 29.135,22.149 C29.163,22.204 29.218,22.176 29.273,22.149 M30.655,23.256 C30.683,23.2 30.683,23.117 30.628,23.062 C30.6,23.007 30.545,22.951 30.462,22.924 L30.213,22.841 C30.102,22.813 30.019,22.758 29.937,22.702 C29.909,22.674 29.909,22.674 29.881,22.647 C29.798,22.536 29.632,22.508 29.522,22.619 C29.411,22.702 29.384,22.868 29.494,22.979 C29.55,23.034 29.577,23.09 29.632,23.117 C29.771,23.2 29.909,23.283 30.075,23.311 L30.158,23.339 L30.213,23.366 L30.324,23.394 C30.379,23.422 30.434,23.422 30.489,23.394 C30.572,23.366 30.628,23.311 30.655,23.256 M32.176,23.865 C32.231,23.726 32.176,23.588 32.037,23.533 L31.374,23.283 C31.291,23.256 31.18,23.256 31.125,23.311 C31.042,23.366 31.015,23.449 31.042,23.56 C31.042,23.643 31.125,23.726 31.208,23.754 L31.871,24.003 C31.899,24.003 31.927,24.031 31.982,24.031 C32.037,24.031 32.148,23.975 32.176,23.865" fill="#E60060"/>
    <path d="M64.978,26.871 C64.453,27.424 63.734,27.757 62.96,27.757 C61.136,27.757 59.837,26.316 59.837,24.379 C59.837,22.275 61.468,21.003 62.96,21.003 C63.734,21.003 64.453,21.306 64.978,21.861 L64.978,18.429 C64.978,18.372 65.033,18.318 65.089,18.318 L66.167,18.318 C66.222,18.318 66.277,18.372 66.277,18.429 L66.277,27.451 C66.277,27.507 66.222,27.562 66.167,27.562 L65.089,27.562 C65.033,27.562 64.978,27.507 64.978,27.451 L64.978,26.871 z M61.108,24.379 C61.108,25.486 61.606,26.649 63.043,26.649 C64.259,26.649 64.978,25.486 64.978,24.379 C64.978,22.94 64.259,22.11 63.043,22.11 C61.716,22.082 61.108,23.273 61.108,24.379 M67.576,27.59 C67.549,27.59 67.521,27.59 67.493,27.562 C67.466,27.535 67.466,27.507 67.466,27.479 L67.466,21.28 C67.466,21.223 67.521,21.169 67.576,21.169 L68.544,21.169 C68.599,21.169 68.654,21.223 68.654,21.28 L68.71,21.889 C69.235,21.306 69.981,20.975 70.755,21.003 C72.358,21.003 73.188,22.055 73.188,24.131 L73.188,27.507 C73.188,27.562 73.132,27.618 73.077,27.618 L71.999,27.618 C71.944,27.618 71.889,27.562 71.889,27.507 L71.889,24.379 C71.889,23.854 71.889,23.245 71.723,22.802 C71.529,22.304 71.17,22.082 70.589,22.082 C69.843,22.082 68.737,22.719 68.737,23.576 L68.737,27.479 C68.737,27.535 68.682,27.59 68.627,27.59 L67.576,27.59 z M84.521,31.604 C84.576,31.604 84.631,31.66 84.631,31.715 L84.631,31.77 L81.84,38.44 C81.287,39.714 80.43,40.488 79.38,40.682 C79.352,40.682 79.324,40.654 79.297,40.654 L78.716,39.936 C78.688,39.908 78.688,39.88 78.688,39.825 C78.688,39.797 78.716,39.77 78.771,39.742 C79.767,39.493 80.347,38.938 80.706,37.887 L78.136,31.743 C78.108,31.715 78.108,31.66 78.136,31.632 C78.163,31.604 78.191,31.576 78.219,31.576 L79.324,31.576 C79.38,31.576 79.407,31.604 79.435,31.66 L81.37,36.613 L83.332,31.66 C83.36,31.604 83.388,31.604 83.443,31.604 L84.521,31.604 z M50.881,18.318 C53.341,18.318 55.331,20.422 55.331,23.023 C55.331,25.625 53.341,27.757 50.881,27.757 C48.421,27.757 46.43,25.625 46.43,23.023 C46.43,20.448 48.421,18.318 50.881,18.318 M54.06,23.051 C54.06,21.058 52.65,19.452 50.881,19.452 C49.139,19.452 47.702,21.086 47.702,23.051 C47.702,25.044 49.139,26.649 50.881,26.649 C52.622,26.649 54.06,25.044 54.06,23.051 M60.445,31.604 C60.472,31.604 60.5,31.604 60.528,31.632 C60.555,31.66 60.555,31.687 60.555,31.715 L60.555,37.915 C60.555,37.943 60.555,37.97 60.528,37.998 C60.5,38.026 60.472,38.026 60.445,38.026 L59.477,38.026 C59.422,38.026 59.367,37.97 59.367,37.915 L59.311,37.306 C58.786,37.887 58.04,38.22 57.266,38.192 C55.663,38.192 54.833,37.139 54.833,35.063 L54.833,31.715 C54.833,31.66 54.889,31.604 54.944,31.604 L56.022,31.604 C56.05,31.604 56.077,31.604 56.105,31.632 C56.133,31.66 56.133,31.687 56.133,31.715 L56.133,34.814 C56.133,35.368 56.133,35.95 56.299,36.393 C56.492,36.89 56.851,37.111 57.432,37.111 C58.178,37.111 59.284,36.476 59.284,35.618 L59.284,31.715 C59.284,31.687 59.284,31.66 59.311,31.632 C59.339,31.604 59.367,31.604 59.394,31.604 L60.445,31.604 z M72.22,31.66 C72.248,31.687 72.248,31.743 72.22,31.77 L69.567,37.97 C69.539,37.998 69.511,38.026 69.456,38.026 L68.433,38.026 C68.378,38.026 68.35,37.998 68.323,37.97 L65.752,31.743 L65.752,31.632 C65.78,31.604 65.807,31.576 65.835,31.576 L66.941,31.576 C66.996,31.576 67.024,31.604 67.051,31.66 L68.959,36.53 L70.921,31.66 C70.949,31.632 70.976,31.604 71.032,31.604 L72.11,31.604 C72.165,31.604 72.193,31.604 72.22,31.66 M75.261,31.41 C77.168,31.41 78.219,32.655 78.219,34.952 C78.219,34.98 78.219,35.008 78.191,35.035 C78.163,35.063 78.136,35.063 78.108,35.063 L73.437,35.063 C73.519,36.061 74.045,37.084 75.261,37.084 C76.173,37.084 77.002,36.807 77.5,36.337 C77.528,36.31 77.555,36.31 77.61,36.31 C77.638,36.31 77.666,36.337 77.693,36.365 L77.997,37.194 C78.025,37.25 77.997,37.278 77.97,37.306 C77.141,38.026 76.035,38.164 75.289,38.164 C73.409,38.164 72.165,36.807 72.165,34.786 C72.137,32.849 73.464,31.41 75.261,31.41 M73.437,34.151 L76.919,34.151 C76.726,33.043 76.201,32.544 75.261,32.544 C74.349,32.544 73.63,33.153 73.437,34.151 M56.299,27.59 C56.243,27.59 56.188,27.535 56.188,27.479 L56.188,21.28 C56.188,21.223 56.243,21.169 56.299,21.169 L57.266,21.169 C57.321,21.169 57.377,21.223 57.377,21.28 L57.432,21.833 C57.791,21.306 58.372,21.003 59.007,21.003 C59.229,21.003 59.477,21.031 59.698,21.086 C59.754,21.086 59.781,21.141 59.781,21.197 L59.781,22.165 C59.781,22.193 59.754,22.247 59.726,22.247 C59.698,22.275 59.643,22.275 59.616,22.247 C59.422,22.11 59.201,22.055 58.952,22.082 C57.57,22.082 57.459,23.632 57.459,24.103 L57.459,27.479 C57.459,27.507 57.459,27.535 57.432,27.562 C57.404,27.59 57.377,27.59 57.349,27.59 L56.299,27.59 z M97.043,21.003 C98.95,21.003 100,22.247 100,24.517 C100,24.573 99.945,24.628 99.89,24.628 L95.218,24.628 C95.301,25.625 95.826,26.649 97.043,26.649 C97.955,26.649 98.757,26.372 99.282,25.874 C99.309,25.847 99.337,25.847 99.392,25.847 C99.42,25.847 99.448,25.874 99.475,25.902 L99.779,26.733 C99.807,26.788 99.779,26.843 99.752,26.871 C98.922,27.59 97.844,27.729 97.07,27.729 C95.191,27.729 93.947,26.372 93.947,24.351 C93.919,22.415 95.218,21.003 97.043,21.003 M95.218,23.688 L98.701,23.688 C98.508,22.58 97.983,22.082 97.043,22.082 C96.103,22.082 95.412,22.719 95.218,23.688 M51.074,32.601 C53.009,33.098 53.977,34.095 53.977,35.535 C53.977,37.111 52.76,38.22 51.019,38.22 C49.72,38.22 48.559,37.777 47.895,37.056 C47.868,37.028 47.868,36.973 47.895,36.918 L48.448,36.116 C48.476,36.088 48.503,36.061 48.531,36.061 C48.559,36.061 48.586,36.061 48.614,36.088 C49.277,36.696 50.107,37.056 51.019,37.084 C51.434,37.111 51.848,36.945 52.152,36.641 C52.456,36.337 52.622,35.922 52.594,35.507 C52.594,34.426 51.765,34.123 50.715,33.846 C49.056,33.403 48.144,32.435 48.144,31.188 C48.144,29.528 49.637,28.781 50.991,28.781 C51.793,28.781 52.567,29.002 53.23,29.417 C53.258,29.444 53.286,29.472 53.286,29.5 C53.286,29.528 53.286,29.556 53.258,29.583 L52.705,30.358 C52.677,30.413 52.622,30.413 52.567,30.385 C52.097,30.108 51.544,29.943 50.991,29.888 C50.217,29.888 49.416,30.302 49.416,31.188 C49.443,32.047 50.383,32.407 51.074,32.601 M65.282,31.521 C65.337,31.521 65.365,31.576 65.365,31.632 L65.365,32.601 C65.365,32.627 65.337,32.683 65.31,32.683 C65.282,32.71 65.227,32.71 65.199,32.683 C65.006,32.544 64.785,32.49 64.536,32.518 C63.154,32.518 63.043,34.068 63.043,34.537 L63.043,37.915 C63.043,37.943 63.043,37.97 63.016,37.998 C62.988,38.026 62.96,38.026 62.933,38.026 L61.882,38.026 C61.827,38.026 61.772,37.97 61.772,37.915 L61.772,31.715 C61.772,31.687 61.772,31.66 61.799,31.632 C61.827,31.604 61.855,31.604 61.882,31.604 L62.85,31.604 C62.905,31.604 62.96,31.66 62.96,31.715 L63.016,32.268 C63.375,31.743 63.955,31.438 64.591,31.438 C64.812,31.41 65.061,31.465 65.282,31.521 M93.118,26.041 C93.145,26.041 93.173,26.096 93.173,26.124 L93.449,26.954 C93.449,27.009 93.449,27.037 93.422,27.065 C92.869,27.535 92.095,27.757 91.183,27.757 C89.303,27.757 87.976,26.316 87.976,24.351 C87.976,22.386 89.331,20.975 91.21,20.975 C91.68,20.975 92.814,21.058 93.422,21.889 C93.449,21.916 93.449,21.972 93.422,22.027 L92.979,22.663 C92.952,22.691 92.924,22.719 92.896,22.719 C92.869,22.719 92.841,22.691 92.814,22.691 C92.371,22.138 91.846,22.082 91.21,22.082 C89.773,22.082 89.275,23.299 89.275,24.379 C89.275,25.819 89.966,26.649 91.21,26.649 C91.874,26.677 92.537,26.455 93.035,26.041 C93.035,26.013 93.09,26.013 93.118,26.041 M76.975,27.757 C75.15,27.757 73.851,26.316 73.851,24.379 C73.851,22.275 75.482,21.003 76.975,21.003 C77.749,21.003 78.495,21.306 79.02,21.889 L79.075,21.252 C79.075,21.197 79.131,21.141 79.186,21.141 L80.153,21.141 C80.209,21.141 80.264,21.197 80.264,21.252 L80.264,27.451 C80.264,27.507 80.209,27.562 80.153,27.562 L79.075,27.562 C79.02,27.562 78.965,27.507 78.965,27.451 L78.965,26.843 C78.495,27.451 77.749,27.757 76.975,27.757 M75.15,24.379 C75.15,25.486 75.648,26.649 77.085,26.649 C78.301,26.649 79.02,25.486 79.02,24.379 C79.02,22.94 78.301,22.11 77.085,22.11 C75.731,22.082 75.15,23.273 75.15,24.379 M84.77,21.003 C86.373,21.003 87.202,22.055 87.175,24.131 L87.175,27.507 C87.175,27.562 87.119,27.618 87.064,27.618 L85.986,27.618 C85.931,27.618 85.875,27.562 85.875,27.507 L85.875,24.379 C85.875,23.854 85.875,23.245 85.71,22.802 C85.516,22.304 85.157,22.082 84.576,22.082 C83.83,22.082 82.724,22.719 82.724,23.576 L82.724,27.479 C82.724,27.507 82.724,27.535 82.697,27.562 C82.669,27.59 82.641,27.59 82.614,27.59 L81.536,27.59 C81.48,27.59 81.425,27.535 81.425,27.479 L81.425,21.28 C81.425,21.223 81.48,21.169 81.536,21.169 L82.531,21.169 C82.586,21.169 82.641,21.223 82.641,21.28 L82.697,21.889 C83.249,21.306 83.996,20.975 84.77,21.003" fill="#453C90"/>
  </g>
</svg>
