<?xml version="1.0" encoding="UTF-8"?>
<!DOCTYPE svg PUBLIC "-//W3C//DTD SVG 1.1//EN" "http://www.w3.org/Graphics/SVG/1.1/DTD/svg11.dtd">
<svg version="1.1" xmlns="http://www.w3.org/2000/svg" xmlns:xlink="http://www.w3.org/1999/xlink" x="0" y="0" width="100" height="25" viewBox="0, 0, 100, 25">
  <g id="Layer_1">
    <path d="M10.394,24.718 C10.338,24.718 10.255,24.69 10.145,24.69 C10.09,24.69 10.007,24.663 9.868,24.635 C8.708,24.386 7.574,23.971 6.496,23.417 L6.524,23.196 C6.8,21.507 7.077,19.791 7.768,18.213 C7.934,18.047 8.044,17.826 8.099,17.604 L10.753,17.687 L11.278,17.687 C11.499,17.687 11.693,17.604 11.886,17.494 C12.08,17.604 12.301,17.687 12.522,17.687 C12.826,17.687 13.13,17.549 13.351,17.328 C13.821,17.577 14.291,17.77 14.872,17.77 L14.982,17.77 C15.618,17.715 16.254,17.604 16.89,17.438 C17.498,17.3 18.161,17.106 18.852,16.912 C18.327,17.494 17.774,18.02 17.194,18.518 C16.364,19.127 15.452,19.653 14.512,20.096 C14.015,20.345 13.545,20.677 13.13,21.092 C12.854,21.396 12.633,21.729 12.467,22.061 C12.412,22.144 12.384,22.227 12.329,22.282 C12.246,22.421 12.135,22.559 12.052,22.725 C11.831,23.002 11.665,23.306 11.555,23.611 C11.416,23.998 11.306,24.414 11.195,24.773 L11.168,24.856 C10.919,24.801 10.642,24.746 10.394,24.718 M15.452,20.179 C16.392,21.452 17.774,22.227 19.184,22.891 C17.166,24.22 14.816,24.912 12.412,24.912 C12.163,24.912 11.942,24.912 11.693,24.884 C11.803,24.524 11.914,24.137 12.052,23.777 C12.163,23.5 12.301,23.251 12.494,23.002 C12.605,22.864 12.716,22.697 12.799,22.531 C12.854,22.448 12.881,22.365 12.937,22.282 C13.103,21.978 13.296,21.673 13.517,21.424 C13.877,21.064 14.291,20.76 14.761,20.538 L15.452,20.179 z M6.994,6.117 C6.938,4.567 6.773,3.045 6.469,1.523 C10.836,-0.858 16.198,-0.387 20.124,2.713 C20.041,2.796 19.958,2.879 19.902,2.962 C19.709,3.211 19.571,3.515 19.46,3.82 C19.433,3.931 19.377,4.014 19.35,4.124 L19.184,4.512 C18.907,5.176 18.576,5.841 18.189,6.449 C17.857,6.892 17.498,7.308 17.111,7.667 C16.862,7.917 16.585,8.193 16.337,8.47 C16.281,8.553 16.198,8.636 16.143,8.719 L15.673,8.276 C15.646,8.221 15.59,8.138 15.563,8.083 C15.48,7.944 15.397,7.806 15.397,7.64 C15.425,7.474 15.646,7.308 15.811,7.169 C15.867,7.114 15.922,7.086 15.95,7.058 C16.005,7.003 16.033,6.948 16.033,6.892 C16.033,6.837 16.005,6.754 15.977,6.699 C15.922,6.643 15.867,6.616 15.811,6.616 C15.756,6.616 15.673,6.643 15.618,6.671 C15.59,6.699 15.535,6.754 15.48,6.782 C15.231,6.975 14.927,7.225 14.872,7.584 C14.844,7.861 14.927,8.138 15.093,8.387 L15.12,8.442 C15.065,8.525 15.01,8.581 14.955,8.664 C14.706,9.051 14.512,9.301 14.264,9.273 C13.628,9.19 13.49,9.522 13.379,9.882 C13.241,10.214 13.158,10.712 13.821,10.989 L14.015,11.072 C14.264,11.183 14.485,11.266 14.761,11.349 C14.899,11.376 15.038,11.404 15.176,11.432 L15.756,11.46 C16.143,11.487 16.558,11.487 16.945,11.515 C17.498,11.543 18.023,11.626 18.548,11.792 C18.88,11.902 19.073,12.207 19.211,12.511 C19.46,12.982 19.709,13.48 19.985,14.172 C20.179,14.643 20.428,15.086 20.704,15.528 C20.732,15.584 20.759,15.639 20.815,15.694 C20.676,15.778 20.538,15.833 20.4,15.888 C19.211,16.359 17.995,16.746 16.779,17.023 C16.198,17.189 15.59,17.3 14.982,17.328 C14.485,17.355 14.07,17.162 13.6,16.94 C13.628,16.829 13.628,16.746 13.628,16.636 C13.655,16.11 13.296,15.667 12.799,15.556 C12.826,15.335 12.826,15.113 12.854,14.919 C12.909,14.532 12.937,14.117 12.937,13.729 C12.937,13.508 12.909,13.286 12.909,13.093 C12.909,12.843 12.881,12.594 12.881,12.345 L12.881,12.235 C12.881,11.487 12.881,10.38 12.052,10.02 C11.499,9.799 10.864,9.688 10.255,9.771 C10.09,9.771 9.951,9.799 9.786,9.826 C9.454,9.882 9.095,9.937 8.901,9.854 C8.763,9.799 8.708,9.577 8.68,9.356 C8.652,9.107 8.652,8.858 8.652,8.609 L8.652,8.442 C8.652,8.083 8.625,7.75 8.597,7.418 L8.569,7.003 C8.569,6.865 8.542,6.726 8.542,6.588 C8.486,6.173 8.486,5.785 8.542,5.37 C8.652,4.789 8.735,4.235 8.818,3.765 C8.846,3.626 8.735,3.488 8.597,3.46 C8.459,3.432 8.321,3.543 8.293,3.682 C8.21,4.152 8.127,4.706 8.016,5.287 C7.961,5.73 7.934,6.2 8.016,6.643 C8.016,6.782 8.044,6.92 8.044,7.058 C8.044,7.197 8.072,7.335 8.072,7.474 C8.099,7.806 8.127,8.138 8.127,8.47 L8.127,8.636 C8.127,8.913 8.127,9.162 8.155,9.439 C8.182,9.66 8.293,10.131 8.652,10.325 C9.012,10.518 9.454,10.435 9.868,10.352 C10.007,10.325 10.145,10.297 10.255,10.297 C10.781,10.242 11.306,10.325 11.803,10.518 C12.356,10.768 12.356,11.653 12.356,12.262 L12.356,12.401 C12.356,12.65 12.384,12.927 12.384,13.176 C12.412,13.397 12.412,13.591 12.412,13.812 C12.412,14.2 12.384,14.56 12.329,14.947 C12.301,15.169 12.273,15.39 12.273,15.611 C11.748,15.694 11.333,16.165 11.361,16.691 C11.361,16.885 11.416,17.051 11.499,17.217 C11.389,17.272 11.251,17.3 11.112,17.3 L8.155,17.051 C8.127,16.829 8.072,16.636 7.961,16.442 C7.215,14.836 7.021,13.01 6.828,11.266 L6.8,10.961 C6.938,9.384 6.994,7.75 6.994,6.117 M9.841,6.366 C9.813,6.588 9.841,6.782 9.868,7.003 C9.896,7.141 9.979,7.612 10.09,7.667 C10.2,7.723 10.477,7.667 10.615,7.667 L11.914,7.667 L11.914,6.671 L11.61,6.671 L11.61,5.425 L10.311,5.425 C10.173,5.425 10.117,5.398 10.034,5.481 C9.868,5.674 9.841,6.145 9.841,6.366 M5.695,16.082 C5.667,16.802 5.639,17.577 5.612,18.324 C4.893,18.241 4.202,17.909 4.202,17.189 C4.23,16.497 4.948,16.137 5.695,16.082 M6.441,16.11 C6.69,16.137 6.938,16.248 7.187,16.359 C7.491,16.525 7.685,16.857 7.685,17.189 C7.685,17.854 7.077,18.186 6.386,18.296 C6.386,17.577 6.386,16.829 6.441,16.11 M22.003,15.445 L24.602,14.781 C24.353,16.11 23.883,17.383 23.22,18.545 C22.888,18.075 22.556,17.632 22.169,17.217 C22.003,17.051 21.81,16.94 21.616,16.829 C21.506,16.774 21.395,16.691 21.285,16.636 C21.119,16.497 21.008,16.303 20.953,16.082 C21.312,15.916 21.644,15.694 21.948,15.418 C21.976,15.445 22.003,15.445 22.003,15.445 M22.611,13.84 C22.335,14.255 22.031,14.643 21.672,15.003 C21.533,15.113 21.395,15.224 21.229,15.335 C21.202,15.279 21.146,15.224 21.119,15.169 C20.87,14.753 20.621,14.311 20.428,13.868 C20.124,13.176 19.875,12.65 19.626,12.152 C19.543,11.958 19.405,11.792 19.267,11.626 L18.852,6.283 C19.129,5.758 19.377,5.232 19.598,4.706 L19.764,4.318 C19.82,4.207 19.847,4.097 19.902,3.986 C19.985,3.737 20.096,3.488 20.262,3.266 C20.345,3.183 20.4,3.1 20.483,3.017 C22.777,4.982 24.27,7.723 24.685,10.74 L24.519,10.989 C23.966,11.819 23.385,12.705 22.777,13.535 C22.75,13.646 22.694,13.757 22.611,13.84 M16.972,10.906 C16.558,10.878 16.171,10.851 15.756,10.823 L15.342,10.795 L15.452,10.629 C15.839,9.965 16.281,9.356 16.751,8.775 C16.972,8.498 17.249,8.249 17.498,8 C17.857,7.667 18.161,7.335 18.465,6.975 L18.797,11.21 L18.742,11.183 C18.133,11.044 17.553,10.934 16.972,10.906 M23.054,14.144 L23.247,13.868 C23.772,13.12 24.298,12.345 24.795,11.57 C24.823,11.847 24.823,12.152 24.823,12.456 C24.823,13.037 24.767,13.646 24.685,14.227 L22.584,14.753 C22.75,14.56 22.915,14.338 23.054,14.144 M15.811,9.134 C15.507,9.55 15.259,9.965 14.982,10.38 L14.761,10.74 C14.568,10.684 14.374,10.601 14.181,10.518 L14.015,10.435 C13.794,10.352 13.738,10.325 13.877,9.992 C13.987,9.688 13.987,9.688 14.208,9.716 C14.789,9.799 15.148,9.273 15.397,8.885 L15.452,8.802 L15.811,9.134 z M6.441,15.584 C6.469,14.781 6.551,13.978 6.607,13.176 C6.717,14.061 6.938,14.947 7.215,15.805 C6.994,15.722 6.717,15.639 6.441,15.584 M4.119,18.241 C4.727,19.763 5.252,21.313 5.667,22.919 C3.29,21.396 1.521,19.099 0.608,16.386 L0.608,16.359 L0.774,16.248 C1.023,16.082 1.272,15.888 1.465,15.667 C1.714,15.861 1.963,16.027 2.184,16.248 C2.35,16.386 2.543,16.525 2.709,16.663 C2.903,16.802 3.096,16.912 3.29,17.023 C3.428,17.106 3.594,17.189 3.704,17.3 C3.76,17.66 3.898,17.964 4.119,18.241 z M0.498,9.992 C0.443,9.937 0.36,9.854 0.304,9.826 C0.719,7.861 1.631,6.034 2.903,4.512 L2.958,5.398 C3.041,6.865 3.124,8.415 3.262,9.909 L3.29,10.02 C3.317,10.38 3.317,10.518 3.179,10.574 C3.013,10.629 2.82,10.684 2.654,10.657 C2.571,10.657 2.516,10.684 2.433,10.684 C2.322,10.684 2.212,10.712 2.073,10.74 C1.797,10.795 1.493,10.851 1.355,10.74 C1.051,10.491 0.774,10.242 0.498,9.992 M0.166,10.38 C0.443,10.629 0.719,10.906 1.023,11.127 L1.078,11.155 L1.161,14.311 C1.161,14.421 1.161,14.504 1.189,14.615 C1.217,14.809 1.217,14.975 1.189,15.169 C1.134,15.418 0.774,15.639 0.498,15.833 L0.443,15.861 C0.139,14.753 -0,13.619 -0,12.456 C-0,11.764 0.056,11.072 0.166,10.38 M22.915,18.988 L22.943,19.044 C22.086,20.428 20.981,21.618 19.681,22.559 C18.244,21.895 16.834,21.175 15.922,19.929 C16.475,19.625 17.028,19.293 17.525,18.905 C18.161,18.379 18.742,17.826 19.294,17.217 C19.516,16.995 19.737,16.746 19.958,16.525 C20.151,16.47 20.345,16.386 20.511,16.303 C20.594,16.608 20.759,16.857 21.008,17.051 C21.146,17.134 21.257,17.217 21.395,17.3 C21.561,17.355 21.699,17.466 21.837,17.577 C22.224,18.02 22.584,18.49 22.915,18.988 M11.914,16.553 C11.914,16.386 11.969,16.22 12.107,16.11 C12.218,15.999 12.384,15.944 12.55,15.944 C12.716,15.944 12.854,15.999 12.992,16.082 C13.103,16.193 13.186,16.359 13.186,16.525 C13.186,16.857 12.909,17.134 12.577,17.134 C12.19,17.189 11.914,16.912 11.914,16.553 M6.358,18.85 C6.607,18.822 6.883,18.767 7.132,18.656 C6.828,19.514 6.579,20.428 6.413,21.313 C6.413,20.981 6.386,20.649 6.386,20.317 C6.358,19.846 6.358,19.348 6.358,18.85 M5.584,14.006 C5.639,13.84 5.667,13.674 5.722,13.508 L5.916,12.843 C5.833,13.757 5.777,14.67 5.722,15.584 C5.473,15.611 5.225,15.639 4.976,15.722 C5.086,15.528 5.169,15.335 5.252,15.113 C5.39,14.726 5.501,14.366 5.584,14.006 M5.639,20.345 C5.639,20.649 5.667,20.981 5.667,21.286 C5.418,20.4 5.114,19.514 4.782,18.656 C5.059,18.767 5.335,18.822 5.612,18.85 C5.639,19.348 5.639,19.846 5.639,20.345 M3.456,5.342 C3.428,4.872 3.4,4.401 3.373,3.958 C4.091,3.183 4.893,2.519 5.777,1.938 C6.026,3.322 6.192,4.733 6.247,6.145 C6.275,7.612 6.192,9.107 6.082,10.546 L5.28,13.342 C5.225,13.508 5.197,13.702 5.142,13.868 C5.059,14.227 4.948,14.587 4.81,14.947 C4.699,15.196 4.589,15.445 4.451,15.694 C4.395,15.833 4.312,15.944 4.257,16.082 C4.036,16.248 3.87,16.497 3.787,16.746 L3.538,16.608 C3.345,16.497 3.179,16.386 3.013,16.276 C2.847,16.137 2.682,15.999 2.488,15.861 C2.212,15.639 1.935,15.418 1.659,15.224 C1.686,15.003 1.686,14.809 1.659,14.587 C1.659,14.504 1.631,14.394 1.631,14.311 L1.548,11.321 C1.742,11.321 1.908,11.293 2.073,11.238 C2.184,11.21 2.295,11.183 2.378,11.183 L2.571,11.183 C2.82,11.183 3.069,11.127 3.317,11.044 C3.815,10.795 3.76,10.297 3.704,9.965 L3.704,9.854 C3.594,8.332 3.511,6.809 3.456,5.342" fill="#453C90"/>
    <path d="M32.12,23.777 C32.424,23.777 32.673,24.026 32.673,24.331 C32.673,24.635 32.424,24.884 32.12,24.884 C29.19,24.884 26.371,23.611 24.215,21.313 C24.049,21.147 23.994,20.898 24.076,20.677 C24.159,20.483 24.38,20.345 24.574,20.345 C24.74,20.345 24.906,20.428 25.016,20.538 C26.979,22.642 29.494,23.777 32.12,23.777 M34.387,1.107 C34.11,1.08 33.889,0.831 33.917,0.526 C33.945,0.249 34.166,0 34.47,0 L34.525,0 C37.013,0.277 39.307,1.467 40.938,3.349 C41.104,3.543 41.104,3.848 40.938,4.069 C40.827,4.18 40.689,4.263 40.523,4.263 C40.358,4.263 40.219,4.207 40.109,4.069 C38.616,2.408 36.598,1.356 34.387,1.107 M34.442,14.061 C34.249,14.006 34.083,13.978 33.889,13.923 L33.889,11.432 C34.359,11.543 34.636,11.764 34.746,12.096 C34.829,12.401 34.884,12.705 34.94,13.01 C34.967,13.397 35.05,13.757 35.161,14.117 C35.161,14.144 35.188,14.2 35.216,14.227 C34.94,14.2 34.691,14.117 34.442,14.061 M35.41,11.875 C35.161,11.127 34.497,10.878 33.889,10.74 L33.889,8.193 C37.013,8.193 39.86,9.909 41.325,12.65 L40.855,13.037 C40.8,13.065 40.745,13.12 40.689,13.176 C40.606,13.231 40.551,13.314 40.468,13.369 L40.44,13.369 C40.33,13.342 39.169,12.622 39.003,12.511 C38.92,12.456 38.837,12.456 38.754,12.484 C38.671,12.539 38.616,12.594 38.616,12.705 C38.616,12.788 38.644,12.899 38.727,12.927 L38.81,12.954 L38.367,13.12 L38.257,13.148 C38.008,13.203 37.814,13.369 37.704,13.591 C37.676,13.646 37.649,13.729 37.621,13.812 C37.566,13.951 37.51,14.089 37.455,14.227 L36.018,14.227 C35.962,14.089 35.88,13.951 35.852,13.812 C35.741,13.508 35.686,13.176 35.658,12.843 C35.575,12.567 35.52,12.207 35.41,11.875 M36.045,24.552 C36.045,24.552 36.045,24.58 36.045,24.552 C35.631,24.69 35.216,24.746 34.801,24.801 C34.497,24.829 34.359,24.912 34.11,24.746 C33.972,24.663 33.889,24.497 33.889,24.331 L33.889,18.85 L36.267,24.109 C36.184,24.247 36.128,24.414 36.045,24.552 M38.92,20.04 C39.362,20.705 40.081,21.147 40.689,21.452 C40.192,22.144 39.556,22.753 38.865,23.251 L38.367,22.531 C38.312,22.476 38.257,22.421 38.174,22.421 C38.091,22.421 38.036,22.421 37.98,22.476 L36.681,23.611 L36.654,23.639 L33.917,17.577 L33.917,14.477 C34.055,14.504 34.193,14.532 34.332,14.587 C34.719,14.698 35.106,14.781 35.493,14.809 C35.769,15.335 36.184,15.833 36.654,16.193 C36.958,16.414 37.621,16.774 38.146,16.663 C38.367,16.608 38.588,16.47 38.699,16.248 C38.81,15.999 38.893,15.722 38.893,15.445 C38.948,14.615 39.197,14.532 39.362,14.643 C39.694,14.864 39.501,15.39 39.252,15.971 L39.197,16.082 C38.893,16.691 38.671,17.355 38.533,18.047 C38.423,18.712 38.533,19.431 38.92,20.04 M41.767,14.643 C41.878,14.698 41.988,14.753 42.127,14.809 C42.569,16.885 42.182,19.071 41.076,20.898 C40.551,20.621 39.888,20.234 39.528,19.68 C39.252,19.237 39.169,18.684 39.279,18.158 C39.418,17.549 39.611,16.94 39.888,16.386 L39.943,16.276 C40.164,15.805 40.606,14.67 39.722,14.144 C38.201,13.259 38.588,15.694 38.146,15.944 C38.119,15.971 38.119,15.999 38.063,15.999 C37.842,16.054 37.372,15.861 37.123,15.667 C36.819,15.445 36.571,15.169 36.349,14.864 L36.819,14.864 C37.123,14.892 37.427,14.864 37.704,14.809 C37.897,14.698 38.008,14.449 38.119,14.089 C38.146,14.006 38.174,13.951 38.201,13.895 C38.257,13.785 38.257,13.785 38.423,13.729 L38.561,13.674 L39.224,13.425 L39.307,13.397 C39.335,13.397 39.39,13.369 39.362,13.369 C39.418,13.369 40.247,13.868 40.247,13.868 L40.855,14.2 C40.883,14.227 40.938,14.227 40.993,14.227 C41.076,14.227 41.159,14.172 41.214,14.089 C41.242,14.034 41.27,13.951 41.242,13.895 C41.214,13.84 41.187,13.785 41.131,13.729 L41.021,13.674 C41.049,13.646 41.049,13.646 41.104,13.591 C41.159,13.563 41.187,13.508 41.242,13.48 L41.629,13.176 C41.767,13.508 41.905,13.868 42.016,14.2 C41.878,14.144 41.74,14.2 41.684,14.338 C41.574,14.449 41.629,14.587 41.767,14.643 M38.423,23.556 C37.897,23.888 37.317,24.164 36.736,24.386 C36.819,24.247 36.902,24.137 37.013,24.026 L38.091,23.085 L38.423,23.556 z M28.554,12.373 L26.592,10.657 C26.343,8.775 25.735,6.975 24.795,5.315 L26.315,6.616 C26.426,6.699 26.481,6.837 26.509,6.975 C26.592,7.28 26.647,7.612 26.702,7.944 C26.73,8.221 26.785,8.525 26.841,8.802 C26.979,9.522 27.311,10.186 27.808,10.712 C28.444,11.376 29.328,11.736 30.241,11.736 C30.406,11.736 30.572,11.736 30.71,11.709 C31.319,11.626 31.927,11.515 32.507,11.404 L32.507,13.619 L29.356,12.733 C29.301,12.705 29.218,12.705 29.163,12.677 C29.052,12.65 28.941,12.622 28.831,12.594 C28.776,12.567 28.72,12.511 28.665,12.456 L28.554,12.373 z M29.245,13.231 L32.563,14.144 L32.563,16.525 C30.324,16.525 28.167,15.584 26.619,13.978 C26.675,13.452 26.702,12.927 26.702,12.401 C26.702,12.068 26.675,11.736 26.675,11.404 L28.223,12.76 C28.25,12.788 28.278,12.816 28.306,12.843 C28.389,12.927 28.499,13.01 28.61,13.065 C28.748,13.12 28.914,13.176 29.08,13.203 C29.107,13.203 29.19,13.231 29.245,13.231 M32.037,0.028 C32.59,0 32.535,0.609 32.535,0.609 L32.535,10.684 C31.927,10.823 31.263,10.934 30.655,11.017 C29.798,11.155 28.941,10.851 28.333,10.242 C27.919,9.799 27.642,9.245 27.532,8.636 C27.476,8.387 27.449,8.138 27.393,7.889 L27.421,7.917 C27.67,8.11 27.974,8.221 28.278,8.276 C28.499,8.276 28.693,8.221 28.858,8.11 C28.997,8.027 29.08,8 29.135,8.027 C29.384,8.11 29.632,8.249 29.826,8.415 C29.937,8.498 29.964,8.498 29.771,8.858 L29.715,8.941 C29.632,9.107 29.688,9.328 29.854,9.411 C29.909,9.439 29.964,9.439 30.019,9.439 C30.158,9.439 30.268,9.356 30.324,9.245 L30.379,9.162 C30.545,8.858 30.849,8.304 30.241,7.833 C29.964,7.612 29.66,7.446 29.328,7.335 C29.052,7.28 28.776,7.308 28.554,7.474 C28.471,7.529 28.389,7.557 28.278,7.557 C27.836,7.501 27.283,7.058 27.228,7.058 C27.2,6.948 27.172,6.892 27.145,6.782 C27.089,6.505 26.924,6.283 26.73,6.09 L25.182,4.761 C25.127,4.733 25.099,4.706 25.044,4.678 C25.569,3.571 26.343,2.602 27.311,1.827 L27.338,1.855 C27.393,1.938 27.476,1.993 27.587,1.993 C27.615,1.993 27.67,1.993 27.698,1.965 C27.836,1.91 27.891,1.744 27.836,1.633 L27.78,1.495 C29.024,0.637 30.489,0.111 32.037,0.028 M37.289,11.46 C37.234,11.515 37.234,11.57 37.234,11.653 C37.234,11.709 37.262,11.792 37.317,11.819 C37.483,11.985 37.676,12.124 37.842,12.29 C37.897,12.318 37.953,12.345 38.008,12.345 C38.119,12.345 38.201,12.29 38.257,12.179 C38.284,12.068 38.257,11.958 38.174,11.902 C38.008,11.764 37.814,11.598 37.649,11.46 C37.566,11.349 37.4,11.376 37.289,11.46 M36.488,10.269 C36.405,10.159 36.239,10.131 36.128,10.214 C36.018,10.297 35.99,10.463 36.045,10.574 C36.101,10.657 36.156,10.712 36.211,10.768 L36.543,11.1 C36.598,11.155 36.654,11.183 36.736,11.183 C36.792,11.183 36.875,11.155 36.902,11.1 C37.013,10.989 37.013,10.823 36.902,10.74 L36.764,10.601 C36.681,10.546 36.626,10.463 36.571,10.408 C36.571,10.38 36.515,10.325 36.488,10.269 M35.299,8.692 C35.188,8.775 35.161,8.941 35.271,9.051 C35.41,9.217 35.52,9.411 35.603,9.605 C35.658,9.688 35.741,9.743 35.824,9.743 C35.852,9.743 35.907,9.743 35.935,9.716 C35.99,9.688 36.045,9.633 36.073,9.577 C36.101,9.522 36.101,9.439 36.073,9.384 C35.962,9.162 35.852,8.941 35.686,8.747 C35.631,8.692 35.575,8.664 35.52,8.664 C35.41,8.636 35.354,8.664 35.299,8.692 M28.306,3.626 L28.389,3.626 C28.444,3.598 28.499,3.543 28.527,3.488 C28.554,3.432 28.554,3.349 28.527,3.294 C28.471,3.183 28.444,3.1 28.389,2.99 L28.25,2.63 C28.195,2.491 28.029,2.436 27.919,2.491 C27.78,2.547 27.725,2.713 27.78,2.823 L27.946,3.156 C28.002,3.239 28.029,3.349 28.085,3.46 C28.112,3.571 28.195,3.626 28.306,3.626 M29.273,5.149 C29.328,5.121 29.356,5.038 29.384,4.982 C29.384,4.927 29.384,4.844 29.328,4.789 C29.218,4.65 29.135,4.512 29.052,4.346 C29.024,4.318 28.997,4.263 28.969,4.207 C28.914,4.124 28.831,4.069 28.748,4.069 C28.665,4.069 28.554,4.124 28.527,4.18 C28.471,4.263 28.471,4.346 28.527,4.429 C28.554,4.484 28.582,4.512 28.61,4.567 C28.72,4.733 28.803,4.899 28.914,5.038 C28.969,5.121 29.052,5.149 29.135,5.149 C29.163,5.204 29.218,5.176 29.273,5.149 M30.655,6.256 C30.683,6.2 30.683,6.117 30.628,6.062 C30.6,6.007 30.545,5.951 30.462,5.924 L30.213,5.841 C30.102,5.813 30.019,5.758 29.937,5.702 C29.909,5.674 29.909,5.674 29.881,5.647 C29.798,5.536 29.632,5.508 29.522,5.619 C29.411,5.702 29.384,5.868 29.494,5.979 C29.55,6.034 29.577,6.09 29.632,6.117 C29.771,6.2 29.909,6.283 30.075,6.311 L30.158,6.339 L30.213,6.366 L30.324,6.394 C30.379,6.422 30.434,6.422 30.489,6.394 C30.572,6.366 30.628,6.311 30.655,6.256 M32.176,6.865 C32.231,6.726 32.176,6.588 32.037,6.533 L31.374,6.283 C31.291,6.256 31.18,6.256 31.125,6.311 C31.042,6.366 31.015,6.449 31.042,6.56 C31.042,6.643 31.125,6.726 31.208,6.754 L31.871,7.003 C31.899,7.003 31.927,7.031 31.982,7.031 C32.037,7.031 32.148,6.975 32.176,6.865" fill="#E60060"/>
    <path d="M64.323,10.989 C63.798,11.543 63.079,11.875 62.305,11.875 C60.481,11.875 59.182,10.435 59.182,8.498 C59.182,6.394 60.813,5.121 62.305,5.121 C63.079,5.121 63.798,5.425 64.323,5.979 L64.323,2.547 C64.323,2.491 64.378,2.436 64.434,2.436 L65.512,2.436 C65.567,2.436 65.622,2.491 65.622,2.547 L65.622,11.57 C65.622,11.626 65.567,11.681 65.512,11.681 L64.434,11.681 C64.378,11.681 64.323,11.626 64.323,11.57 L64.323,10.989 z M60.453,8.498 C60.453,9.605 60.951,10.768 62.388,10.768 C63.604,10.768 64.323,9.605 64.323,8.498 C64.323,7.058 63.604,6.228 62.388,6.228 C61.061,6.2 60.453,7.391 60.453,8.498 M66.921,11.709 C66.894,11.709 66.866,11.709 66.838,11.681 C66.811,11.653 66.811,11.626 66.811,11.598 L66.811,5.398 C66.811,5.342 66.866,5.287 66.921,5.287 L67.889,5.287 C67.944,5.287 67.999,5.342 67.999,5.398 L68.055,6.007 C68.58,5.425 69.326,5.093 70.1,5.121 C71.703,5.121 72.533,6.173 72.533,8.249 L72.533,11.626 C72.533,11.681 72.477,11.736 72.422,11.736 L71.344,11.736 C71.289,11.736 71.234,11.681 71.234,11.626 L71.234,8.498 C71.234,7.972 71.234,7.363 71.068,6.92 C70.874,6.422 70.515,6.2 69.934,6.2 C69.188,6.2 68.082,6.837 68.082,7.695 L68.082,11.598 C68.082,11.653 68.027,11.709 67.972,11.709 L66.921,11.709 z M83.866,15.722 C83.921,15.722 83.976,15.778 83.976,15.833 L83.976,15.888 L81.185,22.559 C80.632,23.832 79.775,24.607 78.725,24.801 C78.697,24.801 78.669,24.773 78.642,24.773 L78.061,24.054 C78.033,24.026 78.033,23.998 78.033,23.943 C78.033,23.915 78.061,23.888 78.116,23.86 C79.112,23.611 79.692,23.057 80.051,22.005 L77.481,15.861 C77.453,15.833 77.453,15.778 77.481,15.75 C77.508,15.722 77.536,15.694 77.564,15.694 L78.669,15.694 C78.725,15.694 78.752,15.722 78.78,15.778 L80.715,20.732 L82.677,15.778 C82.705,15.722 82.733,15.722 82.788,15.722 L83.866,15.722 z M50.226,2.436 C52.686,2.436 54.676,4.54 54.676,7.141 C54.676,9.743 52.686,11.875 50.226,11.875 C47.766,11.875 45.775,9.743 45.775,7.141 C45.775,4.567 47.766,2.436 50.226,2.436 M53.405,7.169 C53.405,5.176 51.995,3.571 50.226,3.571 C48.484,3.571 47.047,5.204 47.047,7.169 C47.047,9.162 48.484,10.768 50.226,10.768 C51.967,10.768 53.405,9.162 53.405,7.169 M59.79,15.722 C59.817,15.722 59.845,15.722 59.873,15.75 C59.9,15.778 59.9,15.805 59.9,15.833 L59.9,22.033 C59.9,22.061 59.9,22.088 59.873,22.116 C59.845,22.144 59.817,22.144 59.79,22.144 L58.822,22.144 C58.767,22.144 58.712,22.088 58.712,22.033 L58.656,21.424 C58.131,22.005 57.385,22.338 56.611,22.31 C55.008,22.31 54.178,21.258 54.178,19.182 L54.178,15.833 C54.178,15.778 54.234,15.722 54.289,15.722 L55.367,15.722 C55.395,15.722 55.422,15.722 55.45,15.75 C55.478,15.778 55.478,15.805 55.478,15.833 L55.478,18.933 C55.478,19.487 55.478,20.068 55.644,20.511 C55.837,21.009 56.196,21.23 56.777,21.23 C57.523,21.23 58.629,20.594 58.629,19.736 L58.629,15.833 C58.629,15.805 58.629,15.778 58.656,15.75 C58.684,15.722 58.712,15.722 58.739,15.722 L59.79,15.722 z M71.565,15.778 C71.593,15.805 71.593,15.861 71.565,15.888 L68.912,22.088 C68.884,22.116 68.856,22.144 68.801,22.144 L67.778,22.144 C67.723,22.144 67.695,22.116 67.668,22.088 L65.097,15.861 L65.097,15.75 C65.125,15.722 65.152,15.694 65.18,15.694 L66.286,15.694 C66.341,15.694 66.369,15.722 66.396,15.778 L68.304,20.649 L70.266,15.778 C70.294,15.75 70.321,15.722 70.377,15.722 L71.455,15.722 C71.51,15.722 71.538,15.722 71.565,15.778 M74.606,15.528 C76.513,15.528 77.564,16.774 77.564,19.071 C77.564,19.099 77.564,19.127 77.536,19.154 C77.508,19.182 77.481,19.182 77.453,19.182 L72.782,19.182 C72.864,20.179 73.39,21.203 74.606,21.203 C75.518,21.203 76.347,20.926 76.845,20.455 C76.873,20.428 76.9,20.428 76.955,20.428 C76.983,20.428 77.011,20.455 77.038,20.483 L77.342,21.313 C77.37,21.369 77.342,21.396 77.315,21.424 C76.486,22.144 75.38,22.282 74.634,22.282 C72.754,22.282 71.51,20.926 71.51,18.905 C71.482,16.968 72.809,15.528 74.606,15.528 M72.782,18.269 L76.264,18.269 C76.071,17.162 75.546,16.663 74.606,16.663 C73.694,16.663 72.975,17.272 72.782,18.269 M55.644,11.709 C55.588,11.709 55.533,11.653 55.533,11.598 L55.533,5.398 C55.533,5.342 55.588,5.287 55.644,5.287 L56.611,5.287 C56.666,5.287 56.722,5.342 56.722,5.398 L56.777,5.951 C57.136,5.425 57.717,5.121 58.352,5.121 C58.574,5.121 58.822,5.149 59.043,5.204 C59.099,5.204 59.126,5.259 59.126,5.315 L59.126,6.283 C59.126,6.311 59.099,6.366 59.071,6.366 C59.043,6.394 58.988,6.394 58.961,6.366 C58.767,6.228 58.546,6.173 58.297,6.2 C56.915,6.2 56.804,7.75 56.804,8.221 L56.804,11.598 C56.804,11.626 56.804,11.653 56.777,11.681 C56.749,11.709 56.722,11.709 56.694,11.709 L55.644,11.709 z M96.388,5.121 C98.295,5.121 99.345,6.366 99.345,8.636 C99.345,8.692 99.29,8.747 99.235,8.747 L94.563,8.747 C94.646,9.743 95.171,10.768 96.388,10.768 C97.3,10.768 98.102,10.491 98.627,9.992 C98.654,9.965 98.682,9.965 98.737,9.965 C98.765,9.965 98.793,9.992 98.82,10.02 L99.124,10.851 C99.152,10.906 99.124,10.961 99.097,10.989 C98.267,11.709 97.189,11.847 96.415,11.847 C94.536,11.847 93.292,10.491 93.292,8.47 C93.264,6.533 94.563,5.121 96.388,5.121 M94.563,7.806 L98.046,7.806 C97.853,6.699 97.328,6.2 96.388,6.2 C95.448,6.2 94.757,6.837 94.563,7.806 M50.419,16.719 C52.354,17.217 53.322,18.213 53.322,19.653 C53.322,21.23 52.105,22.338 50.364,22.338 C49.065,22.338 47.904,21.895 47.24,21.175 C47.213,21.147 47.213,21.092 47.24,21.037 L47.793,20.234 C47.821,20.206 47.848,20.179 47.876,20.179 C47.904,20.179 47.931,20.179 47.959,20.206 C48.622,20.815 49.452,21.175 50.364,21.203 C50.779,21.23 51.193,21.064 51.497,20.76 C51.801,20.455 51.967,20.04 51.939,19.625 C51.939,18.545 51.11,18.241 50.06,17.964 C48.401,17.521 47.489,16.553 47.489,15.307 C47.489,13.646 48.982,12.899 50.336,12.899 C51.138,12.899 51.912,13.12 52.575,13.535 C52.603,13.563 52.631,13.591 52.631,13.619 C52.631,13.646 52.631,13.674 52.603,13.702 L52.05,14.477 C52.022,14.532 51.967,14.532 51.912,14.504 C51.442,14.227 50.889,14.061 50.336,14.006 C49.562,14.006 48.761,14.421 48.761,15.307 C48.788,16.165 49.728,16.525 50.419,16.719 M64.627,15.639 C64.682,15.639 64.71,15.694 64.71,15.75 L64.71,16.719 C64.71,16.746 64.682,16.802 64.655,16.802 C64.627,16.829 64.572,16.829 64.544,16.802 C64.351,16.663 64.13,16.608 63.881,16.636 C62.499,16.636 62.388,18.186 62.388,18.656 L62.388,22.033 C62.388,22.061 62.388,22.088 62.361,22.116 C62.333,22.144 62.305,22.144 62.278,22.144 L61.227,22.144 C61.172,22.144 61.117,22.088 61.117,22.033 L61.117,15.833 C61.117,15.805 61.117,15.778 61.144,15.75 C61.172,15.722 61.2,15.722 61.227,15.722 L62.195,15.722 C62.25,15.722 62.305,15.778 62.305,15.833 L62.361,16.386 C62.72,15.861 63.3,15.556 63.936,15.556 C64.157,15.528 64.406,15.584 64.627,15.639 M92.463,10.159 C92.49,10.159 92.518,10.214 92.518,10.242 L92.794,11.072 C92.794,11.127 92.794,11.155 92.767,11.183 C92.214,11.653 91.44,11.875 90.528,11.875 C88.648,11.875 87.321,10.435 87.321,8.47 C87.321,6.505 88.676,5.093 90.555,5.093 C91.025,5.093 92.159,5.176 92.767,6.007 C92.794,6.034 92.794,6.09 92.767,6.145 L92.324,6.782 C92.297,6.809 92.269,6.837 92.241,6.837 C92.214,6.837 92.186,6.809 92.159,6.809 C91.716,6.256 91.191,6.2 90.555,6.2 C89.118,6.2 88.62,7.418 88.62,8.498 C88.62,9.937 89.311,10.768 90.555,10.768 C91.219,10.795 91.882,10.574 92.38,10.159 C92.38,10.131 92.435,10.131 92.463,10.159 M76.32,11.875 C74.495,11.875 73.196,10.435 73.196,8.498 C73.196,6.394 74.827,5.121 76.32,5.121 C77.094,5.121 77.84,5.425 78.365,6.007 L78.42,5.37 C78.42,5.315 78.476,5.259 78.531,5.259 L79.498,5.259 C79.554,5.259 79.609,5.315 79.609,5.37 L79.609,11.57 C79.609,11.626 79.554,11.681 79.498,11.681 L78.42,11.681 C78.365,11.681 78.31,11.626 78.31,11.57 L78.31,10.961 C77.84,11.57 77.094,11.875 76.32,11.875 M74.495,8.498 C74.495,9.605 74.993,10.768 76.43,10.768 C77.646,10.768 78.365,9.605 78.365,8.498 C78.365,7.058 77.646,6.228 76.43,6.228 C75.076,6.2 74.495,7.391 74.495,8.498 M84.115,5.121 C85.718,5.121 86.547,6.173 86.52,8.249 L86.52,11.626 C86.52,11.681 86.464,11.736 86.409,11.736 L85.331,11.736 C85.276,11.736 85.22,11.681 85.22,11.626 L85.22,8.498 C85.22,7.972 85.22,7.363 85.055,6.92 C84.861,6.422 84.502,6.2 83.921,6.2 C83.175,6.2 82.069,6.837 82.069,7.695 L82.069,11.598 C82.069,11.626 82.069,11.653 82.042,11.681 C82.014,11.709 81.986,11.709 81.959,11.709 L80.881,11.709 C80.825,11.709 80.77,11.653 80.77,11.598 L80.77,5.398 C80.77,5.342 80.825,5.287 80.881,5.287 L81.876,5.287 C81.931,5.287 81.986,5.342 81.986,5.398 L82.042,6.007 C82.594,5.425 83.341,5.093 84.115,5.121" fill="#453C90"/>
  </g>
</svg>
