<?xml version="1.0" encoding="UTF-8"?>
<!DOCTYPE svg PUBLIC "-//W3C//DTD SVG 1.1//EN" "http://www.w3.org/Graphics/SVG/1.1/DTD/svg11.dtd">
<svg version="1.1" xmlns="http://www.w3.org/2000/svg" xmlns:xlink="http://www.w3.org/1999/xlink" x="0" y="0" width="500" height="500" viewBox="0, 0, 500, 500">
  <g id="Layer_1">
    <path d="M50,0 L450,0 C477.614,0 500,22.386 500,50 L500,450 C500,477.614 477.614,500 450,500 L50,500 C22.386,500 0,477.614 0,450 L0,50 C0,22.386 22.386,0 50,0 z" fill="#EEEEEE"/>
    <path d="M475,75 C475,47.386 452.614,25 425,25 L50,25 C36.193,25 25,36.193 25,50 C25,63.807 36.193,75 50,75 L145,75 C200.229,75 245,119.772 245,175 C245,230.228 200.229,275 145,275 L75,275 C47.386,275 25,297.386 25,325 L25,425 C25,452.614 47.386,475 75,475 L175,475 C202.614,475 225,452.614 225,425 L225,355 C225,299.772 269.772,255 325,255 C380.228,255 425,299.772 425,355 L425,449 C425,462.807 436.193,474 450,474 C463.807,474 475,462.807 475,449 L475,75" fill="#1C3857"/>
    <path d="M25.5,25.5 L25.5,25.5" fill-opacity="0" stroke="#000000" stroke-width="1"/>
    <path d="M25.5,25.5 L25.5,25.5" fill-opacity="0" stroke="#000000" stroke-width="1"/>
    <path d="M25.5,25.5 L25.5,25.5" fill-opacity="0" stroke="#000000" stroke-width="1"/>
  </g>
</svg>
